<?xml version="1.0" encoding="utf-8"?>
<!-- Generator: Adobe Illustrator 26.0.3, SVG Export Plug-In . SVG Version: 6.00 Build 0)  -->
<svg version="1.1" id="Layer_1" xmlns="http://www.w3.org/2000/svg" xmlns:xlink="http://www.w3.org/1999/xlink" x="0px" y="0px"
	 viewBox="0 0 203.64 120.23" style="enable-background:new 0 0 203.64 120.23;" xml:space="preserve">
<style type="text/css">
	.st0{fill:#D11F53;}
	.st1{fill:#E0136E;}
	.st2{fill:#9E1C3A;}
	.st3{fill:#221F1F;}
</style>
<g>
	<g>
		<polygon class="st0" points="140.09,58.64 145.71,83.94 182.53,65.3 		"/>
		<polygon class="st1" points="150.55,20.86 140.09,58.65 182.53,65.3 		"/>
		<polygon class="st0" points="105.59,15.31 149.47,20.55 139.1,58.14 		"/>
		<polygon class="st2" points="105.23,22.71 110.13,22.71 123.84,40.24 		"/>
		<polygon class="st0" points="183.71,65.06 170.94,47.4 191.58,43.69 		"/>
		<polygon class="st1" points="181.57,70.24 182.87,66.3 150.67,82.66 		"/>
		<polygon class="st2" points="139.19,59.65 145.9,89.86 125.95,106.08 		"/>
		<polygon class="st1" points="189.57,52.68 201.28,52.49 192.82,43.86 		"/>
	</g>
	<path class="st1" d="M3.52,47.4c0.57,0.05,1.14,0.15,1.75,0.15c0.61,0,1.1-0.1,1.75-0.15v18.79c1.85-3.15,4.18-5.22,7.6-5.22
		c6.2,0,8.85,6.13,8.85,11.77c0,6.75-3.6,13.21-9.92,13.21c-2.58,0.06-4.97-1.32-6.22-3.58c-1.06,0.93-1.99,2.04-2.99,3.05h-0.8
		L3.52,47.4z M6.95,75.03c0,5.47,2.32,9.29,6.14,9.29c4.95,0,6.55-6.66,6.55-11.38c0-5.48-1.81-9.8-6.1-9.85
		C8.52,63.06,6.95,68.99,6.95,75.03"/>
	<path class="st3" d="M39.64,59.55l-3.73,4.8c3.51,5.12,7.14,10.14,10.66,15.33l3.55,5.6v0.28c-0.87-0.06-1.66-0.17-2.4-0.17
		c-0.74,0-1.66,0.11-2.45,0.17c-0.97-1.79-1.93-3.45-3.03-5.07l-9.6-14.21c-0.22-0.22-0.74-0.4-0.74-0.17v19.45
		c-0.7-0.06-1.32-0.17-1.93-0.17c-0.61,0-1.31,0.11-1.93,0.17V47.4c0.62,0.05,1.28,0.17,1.93,0.17c0.65,0,1.22-0.12,1.93-0.17v17.22
		c0,0.34,0.66,0.11,1.09-0.34c0.83-0.86,1.61-1.78,2.34-2.74l10.8-14.17c0.57,0.05,1.14,0.17,1.75,0.17c0.62,0,1.09-0.12,1.71-0.17
		L39.64,59.55z"/>
	<path class="st3" d="M68.69,81.26c0,1.98-0.13,2.99,2.46,2.34v1.11c-0.42,0.21-0.86,0.38-1.32,0.5c-2.28,0.46-4.17,0.05-4.52-2.94
		l-0.39,0.44c-1.55,2.03-3.95,3.21-6.5,3.2c-3.11,0-5.83-2.45-5.83-6.2c0-5.79,4-6.55,8.11-7.31c3.47-0.66,4.66-0.96,4.66-3.4
		c0-3.76-1.84-5.94-5.13-5.94c-2.3-0.05-4.39,1.35-5.22,3.5h-0.48v-2.82c1.98-1.72,4.48-2.7,7.1-2.79c4.6,0,7.11,2.79,7.11,8.52
		L68.69,81.26z M65.18,72.88l-1.54,0.35c-2.99,0.66-7.46,1.16-7.46,5.79c0,3.2,1.6,4.8,4.29,4.8c1.39-0.17,2.66-0.87,3.55-1.95
		c0.32-0.37,1.2-1.23,1.2-1.6L65.18,72.88z"/>
	<path class="st3" d="M76.51,80.59c1.04,1.99,2.98,3.78,5.04,3.78c2.45-0.12,4.36-2.17,4.31-4.63c0-6.85-10.37-2.4-10.37-11.27
		c0-4.87,3.2-7.5,7.15-7.5c1.74-0.04,3.47,0.42,4.96,1.31c-0.43,1.17-0.78,2.38-1.04,3.6h-0.4c-0.58-1.67-2.11-3.35-3.73-3.35
		c-2.19,0-4,1.48-4,4.23c0,6.49,10.37,3.03,10.37,11.16c0,5.43-4.21,8-8.08,8c-1.94,0-3.84-0.56-5.47-1.6
		c0.39-1.22,0.7-2.46,0.92-3.72L76.51,80.59z"/>
	<path class="st3" d="M94.7,47.4c0.58,0.05,1.15,0.15,1.76,0.15c0.61,0,1.1-0.1,1.76-0.15v18.48c1.54-3.1,3.95-4.91,7.07-4.91
		c5.09,0,7.07,3.49,7.07,9.89v14.7c-0.66-0.06-1.18-0.15-1.76-0.15c-0.58,0-1.18,0.1-1.76,0.15V72.02c0-5.6-1.13-8.43-4.87-8.43
		c-3.95,0-5.75,2.85-5.75,8.12v13.85c-0.66-0.06-1.18-0.15-1.76-0.15c-0.58,0-1.17,0.1-1.76,0.15V47.4z"/>
</g>
</svg>
