<?xml version="1.0" encoding="utf-8"?>
<!-- Generator: Adobe Illustrator 26.0.3, SVG Export Plug-In . SVG Version: 6.00 Build 0)  -->
<svg version="1.1" id="Layer_1" xmlns="http://www.w3.org/2000/svg" xmlns:xlink="http://www.w3.org/1999/xlink" x="0px" y="0px"
	 viewBox="0 0 209.04 131.61" style="enable-background:new 0 0 209.04 131.61;" xml:space="preserve">
<style type="text/css">
	.st0{fill:#E82429;}
	.st1{fill:#221F1F;}
	.st2{fill:#F48120;}
</style>
<g>
	<path class="st0" d="M135.17,45.96h-31.76c-0.27,0-0.53,0.11-0.72,0.3c-0.19,0.19-0.3,0.46-0.3,0.73v2.48
		c0,0.27,0.11,0.54,0.3,0.73c0.19,0.19,0.45,0.3,0.72,0.3h23.66v13.31c-0.68-0.99-1.43-1.93-2.25-2.8c-2.79-2.9-5.78-4.37-8.89-4.37
		c-2.47,0-4.58,1.2-6.28,3.58c-1.33,1.78-2.1,3.94-2.2,6.17c-0.1,2.56,0.57,5.1,1.92,7.26c0.86,1.28,2.03,2.32,3.4,3.01
		c1.37,0.69,2.89,1.02,4.42,0.94c3.67,0,6.65-2.61,6.65-5.82c0.01-0.94-0.25-1.87-0.73-2.67c-0.48-0.8-1.18-1.45-2.01-1.87
		l-1.74-1.03v2.03c-0.01,0.14-0.02,0.27-0.05,0.4l-0.05,0.26c-0.25,0.55-0.65,1.02-1.16,1.35c-0.5,0.33-1.09,0.51-1.69,0.53
		c-0.57,0.01-1.13-0.1-1.66-0.32c-0.53-0.21-1.01-0.53-1.41-0.94c-0.49-0.59-0.74-1.35-0.69-2.13c0.05-0.96,0.4-1.88,1.01-2.62
		c0.32-0.44,0.73-0.79,1.21-1.03c0.48-0.24,1.01-0.36,1.54-0.35c3.17-0.08,5.89,1.5,7.97,4.7c1.64,2.36,2.55,5.17,2.62,8.06
		l0.07,6.72l4.68,2.98c0.15,0.09,0.33,0.14,0.5,0.14c0.18,0,0.35-0.04,0.51-0.13c0.16-0.09,0.29-0.21,0.38-0.36
		c0.09-0.15,0.15-0.33,0.15-0.51V50.51h1.88c0.13,0,0.27-0.03,0.39-0.08c0.12-0.05,0.24-0.13,0.33-0.22
		c0.09-0.1,0.17-0.21,0.22-0.34c0.05-0.13,0.08-0.26,0.08-0.4v-2.48c0-0.14-0.03-0.27-0.08-0.4c-0.05-0.13-0.13-0.24-0.22-0.33
		c-0.09-0.1-0.21-0.17-0.33-0.22C135.43,45.99,135.3,45.96,135.17,45.96"/>
	<path class="st0" d="M198.65,45.96h-40.3c-0.13,0-0.27,0.03-0.39,0.08c-0.12,0.05-0.24,0.13-0.33,0.22
		c-0.09,0.1-0.17,0.21-0.22,0.33c-0.05,0.13-0.08,0.26-0.08,0.4v4.53c-3.85-4.17-7.33-6.21-10.59-6.24
		c-2.73-0.15-5.43,0.67-7.64,2.32c-0.98,0.68-1.78,1.58-2.34,2.63c-0.56,1.05-0.87,2.23-0.9,3.43c0,7.16,7.89,7.09,9.84,5.98
		c0.39-0.27,0.84-0.42,1.31-0.45c0.3-0.01,0.61,0.05,0.88,0.17c0.28,0.12,0.53,0.3,0.74,0.53c0.21,0.23,0.36,0.5,0.46,0.79
		c0.09,0.29,0.13,0.6,0.09,0.91c0,1.66-2.35,3.07-5.11,3.07c-1.53,0-2.52-0.44-3.15-1.37l-1.23-1.9l-0.84,2.11
		c-0.27,0.6-0.43,1.25-0.45,1.9c0.04,0.89,0.27,1.75,0.67,2.54c0.41,0.79,0.98,1.47,1.67,2.01c1.43,1.22,3.24,1.87,5.1,1.85
		c1.36,0.06,2.71-0.21,3.95-0.79c1.24-0.58,2.32-1.44,3.16-2.53c1.35-1.8,2.06-4.01,2.02-6.27c-0.06-1.55-0.59-3.04-1.52-4.27
		c-1.28-1.86-2.83-2.81-4.61-2.81c-0.76,0.06-1.51,0.21-2.24,0.45c-0.34,0.11-0.69,0.2-1.03,0.27c-0.44-0.05-0.85-0.26-1.14-0.61
		c-0.2-0.2-0.36-0.45-0.47-0.71c-0.11-0.27-0.16-0.55-0.16-0.84c0.07-1.78,1.61-3.55,4.45-3.55h0.13c1.84,0,3.72,0.94,5.55,2.72
		c1.35,1.27,2.48,2.76,3.36,4.41v25.45l4.69,2.81c0.16,0.1,0.34,0.15,0.52,0.15c0.27,0,0.53-0.11,0.72-0.3
		c0.19-0.19,0.3-0.46,0.3-0.73V50.51h7.18v22.08l5.72,2.33c0.12,0.05,0.25,0.08,0.38,0.08c0.25,0,0.49-0.09,0.67-0.26
		c0.19-0.17,0.31-0.4,0.34-0.64v-0.17c0.98-6.5,3.77-11.01,8.5-13.72v1.2c0,0.9,0.06,3.3,0.12,4.63c0.04,0.73,0.07,1.31,0.13,1.71
		c0.02,3.13,0.43,6.25,1.22,9.28c1.53,5.5,4.2,6.72,6.19,6.77h0.13c0.95,0.08,1.89-0.23,2.62-0.85c0.26-0.27,0.47-0.59,0.61-0.95
		c0.14-0.36,0.2-0.74,0.18-1.12c0.04-0.82-0.11-1.63-0.45-2.37l-0.43-0.79l-0.84,0.21c-0.46,0.15-0.94,0.23-1.43,0.22h-0.17
		c-0.17,0.02-0.33-0.02-0.47-0.12c-0.31-0.16-0.9-0.7-1.36-2.44c-0.28-1.31-0.43-2.65-0.46-4c0-7.13,1.45-12.52,3.7-13.75l0.12-0.06
		c0.17-0.09,0.31-0.22,0.4-0.38c0.1-0.16,0.15-0.35,0.15-0.54c0-0.17-0.04-0.34-0.12-0.5l-0.07-0.13c-1.14-2.19-3.41-3.8-6.61-4.66
		l-0.25-0.07l-0.25,0.04c-2.47,0.44-5.51,2.19-9.25,5.35c-0.97,0.85-1.87,1.64-2.71,2.44v-8.84h21.67c0.27,0,0.53-0.11,0.72-0.3
		c0.19-0.19,0.3-0.46,0.3-0.73v-2.48c0-0.27-0.11-0.54-0.3-0.73c-0.19-0.19-0.45-0.3-0.72-0.3"/>
	<path class="st1" d="M105.58,95.24v1.98l1.68-0.68l0.5,0.49c0.03,0.19,0.05,0.37,0.05,0.56c0.03,0.59-0.17,1.18-0.55,1.63
		c-0.2,0.21-0.45,0.38-0.72,0.49c-0.27,0.11-0.56,0.15-0.85,0.14c-0.35-0.01-0.69-0.08-1.01-0.23c-0.32-0.15-0.6-0.36-0.83-0.62
		c-0.47-0.54-0.83-1.17-1.05-1.85l0.45-0.31c0.59,1.65,1.42,2.47,2.52,2.47c0.19,0,0.39-0.04,0.56-0.12
		c0.18-0.08,0.34-0.2,0.47-0.34c0.14-0.14,0.25-0.31,0.32-0.49c0.07-0.18,0.11-0.38,0.11-0.58c0-0.18-0.03-0.36-0.1-0.52l-1.5,0.67
		l-0.59-0.47v-2.2h-2.65v-0.51h5.84v0.51H105.58z"/>
	<polygon class="st1" points="109.34,95.25 109.34,99.83 108.75,99.83 108.75,95.25 108.01,95.25 108.01,94.73 110.02,94.73 
		110.02,95.25 	"/>
	<path class="st1" d="M113.23,95.24v0.32c0.46,0,0.92,0.13,1.3,0.39c0.2,0.11,0.37,0.27,0.5,0.47c0.12,0.2,0.19,0.43,0.2,0.66
		c0,0.17-0.04,0.33-0.12,0.48c-0.07,0.15-0.18,0.28-0.31,0.38c-0.27,0.22-0.6,0.33-0.94,0.32h-0.13v-0.58h0.3
		c0.09,0.01,0.18,0.01,0.26-0.02c0.08-0.03,0.16-0.07,0.22-0.14c0.06-0.06,0.11-0.14,0.14-0.22c0.03-0.08,0.04-0.17,0.03-0.26
		c0-0.52-0.48-0.85-1.45-0.91v3.7h-0.55c-0.24-0.5-0.58-0.96-0.98-1.34c-0.39-0.4-0.91-0.63-1.45-0.67l-0.18-0.7
		c0.34-0.26,1.2-0.78,2.58-1.58v-0.27h-2.79v-0.51h5.79v0.51H113.23z M112.63,96.21c-0.31,0.13-0.59,0.3-0.84,0.52l-0.77,0.65
		c0.32,0.18,0.6,0.42,0.84,0.7c0.13,0.15,0.38,0.45,0.77,0.85V96.21z"/>
	<path class="st1" d="M123.45,93.84c-0.74-0.55-1.61-0.88-2.52-0.96c-0.52-0.03-1.04,0.13-1.45,0.45c-0.2,0.17-0.36,0.38-0.46,0.62
		c-0.1,0.24-0.15,0.5-0.14,0.77h0.61v0.51h-0.61v4.57h-0.61v-4.57h-0.62v-0.51h0.62c-0.02-0.34,0.05-0.68,0.18-0.99
		c0.14-0.31,0.34-0.59,0.6-0.8c0.54-0.42,1.2-0.64,1.88-0.61c0.51,0.01,1.01,0.12,1.48,0.32c0.47,0.22,0.91,0.48,1.34,0.78
		L123.45,93.84z"/>
	<path class="st1" d="M123.91,95.24v4.59h-0.54c-0.41-0.57-0.95-1.02-1.58-1.31c-0.6-0.38-1.27-0.61-1.98-0.67l-0.18-0.71
		c0.55-0.37,1.15-0.68,1.77-0.91l1.93-0.74v-0.24h-4.11v-0.51h5.31v0.51H123.91z M123.34,96.16c-0.93,0.35-1.84,0.75-2.73,1.19
		c1,0.35,1.93,0.89,2.73,1.6V96.16z"/>
	<path class="st1" d="M124.31,94.73H130v0.51h-5.68V94.73z M127.53,99.81c-0.34-0.01-0.68-0.09-0.99-0.23
		c-0.31-0.15-0.58-0.36-0.81-0.62c-0.47-0.52-0.81-1.15-1.01-1.83l0.35-0.38c0.18,0.6,0.47,1.16,0.84,1.66
		c0.18,0.25,0.41,0.46,0.67,0.61c0.27,0.15,0.57,0.23,0.87,0.24c0.2,0.01,0.4-0.03,0.58-0.12c0.18-0.08,0.34-0.21,0.47-0.37
		c0.26-0.32,0.39-0.72,0.38-1.14c-0.33,0.26-0.73,0.41-1.15,0.42c-0.36,0.01-0.72-0.13-0.98-0.38c-0.14-0.11-0.25-0.26-0.33-0.42
		c-0.08-0.16-0.11-0.34-0.11-0.52c-0.01-0.16,0.01-0.33,0.07-0.48c0.05-0.15,0.14-0.3,0.25-0.42c0.11-0.11,0.24-0.2,0.39-0.25
		c0.14-0.06,0.3-0.08,0.45-0.08c0.24-0.01,0.48,0.06,0.67,0.2c0.09,0.07,0.16,0.16,0.21,0.27c0.05,0.1,0.07,0.22,0.06,0.33
		c-0.01,0.12-0.04,0.23-0.1,0.33c-0.05,0.1-0.13,0.19-0.22,0.27l-0.4-0.31c0.06-0.03,0.12-0.08,0.15-0.14
		c0.04-0.06,0.05-0.13,0.05-0.2c0-0.19-0.12-0.29-0.36-0.29c-0.09,0-0.17,0.02-0.25,0.05c-0.08,0.03-0.15,0.08-0.22,0.15
		c-0.13,0.13-0.2,0.31-0.19,0.5c0,0.11,0.02,0.22,0.06,0.33c0.05,0.1,0.11,0.2,0.2,0.27c0.08,0.08,0.18,0.14,0.28,0.18
		c0.1,0.04,0.21,0.06,0.33,0.06c0.24,0,0.47-0.06,0.69-0.16c0.22-0.1,0.41-0.25,0.56-0.43l0.55,0.57c0.02,0.59-0.18,1.17-0.55,1.62
		c-0.18,0.23-0.41,0.41-0.67,0.53c-0.26,0.12-0.55,0.18-0.83,0.17"/>
	<polygon class="st1" points="131.17,95.25 131.17,99.83 130.58,99.83 130.58,95.25 129.84,95.25 129.84,94.73 131.85,94.73 
		131.85,95.25 	"/>
	<path class="st1" d="M134.09,100.17c-0.47,0.06-0.94-0.06-1.32-0.33c-0.41-0.44-0.67-1.01-0.72-1.61
		c-0.06-0.61,0.09-1.21,0.41-1.72c0.29-0.44,0.61-0.86,0.97-1.25h-1.77v-0.51h2.83v0.51c-0.51,0.22-0.95,0.57-1.28,1.02
		c-0.37,0.43-0.58,0.97-0.61,1.54c0,1.24,0.5,1.85,1.51,1.85c0.17-0.01,0.33-0.07,0.45-0.19v0.6
		C134.43,100.14,134.26,100.18,134.09,100.17"/>
	<path class="st1" d="M137.9,95.24v4.52h-0.58v-3c-0.05-0.2-0.13-0.38-0.25-0.55c-0.13-0.27-0.34-0.49-0.59-0.65
		c-0.25-0.16-0.54-0.25-0.84-0.25c-0.24,0.01-0.46,0.12-0.62,0.29c-0.12,0.12-0.24,0.24-0.37,0.35c0.2-0.08,0.42-0.13,0.64-0.14
		c0.26-0.01,0.51,0.07,0.72,0.21c0.1,0.07,0.19,0.17,0.25,0.29c0.06,0.11,0.09,0.24,0.08,0.37c-0.01,0.38-0.15,0.74-0.4,1.02
		c-0.24,0.3-0.55,0.53-0.9,0.66l-0.39-0.5c0.27-0.1,0.51-0.26,0.71-0.47c0.11-0.09,0.2-0.2,0.27-0.32c0.07-0.13,0.11-0.26,0.13-0.4
		c0-0.14-0.16-0.26-0.48-0.34c-0.21-0.06-0.43-0.09-0.66-0.09c-0.07-0.01-0.14-0.01-0.21,0l-0.29-0.56c0.2-0.23,0.41-0.44,0.65-0.64
		c0.24-0.19,0.54-0.3,0.84-0.3c0.35,0.01,0.69,0.11,0.98,0.3c0.3,0.19,0.54,0.45,0.7,0.76v-1.05h1.23v0.51H137.9z"/>
	<path class="st1" d="M142.96,95.24v4.59h-0.54c-0.4-0.56-0.94-1.01-1.55-1.31c-0.59-0.36-1.25-0.58-1.93-0.64l-0.18-0.7
		c1.13-0.7,2.34-1.28,3.6-1.71v-0.23h-4.01v-0.51h5.14v0.51H142.96z M142.37,96.16c-0.92,0.32-1.82,0.74-2.66,1.24
		c0.98,0.33,1.88,0.86,2.66,1.55V96.16z M140.83,100.01c-0.25-0.24-0.53-0.43-0.84-0.58l0.26-0.48c0.36,0.16,0.68,0.39,0.94,0.69
		L140.83,100.01z"/>
	<path class="st1" d="M151.36,93.84c-0.74-0.55-1.61-0.88-2.52-0.96c-0.52-0.03-1.04,0.13-1.46,0.45c-0.2,0.17-0.36,0.38-0.46,0.62
		c-0.1,0.24-0.15,0.5-0.14,0.77h0.64v0.51h-0.61v4.57h-0.6v-4.57h-0.63v-0.51h0.63c-0.02-0.34,0.04-0.68,0.18-0.99
		c0.13-0.31,0.34-0.59,0.59-0.8c0.54-0.42,1.2-0.64,1.88-0.61c0.51,0.01,1.02,0.12,1.49,0.32c0.46,0.23,0.91,0.48,1.34,0.78
		L151.36,93.84z"/>
	<path class="st1" d="M150.32,95.24v1.98l1.68-0.68l0.5,0.49c0.02,0.19,0.04,0.37,0.04,0.56c0.03,0.59-0.16,1.18-0.54,1.63
		c-0.2,0.21-0.45,0.38-0.72,0.49c-0.27,0.11-0.56,0.15-0.85,0.14c-0.35,0-0.69-0.08-1.01-0.22c-0.32-0.15-0.6-0.36-0.83-0.63
		c-0.47-0.54-0.83-1.17-1.06-1.85l0.46-0.31c0.58,1.65,1.41,2.47,2.52,2.47c0.19,0,0.38-0.04,0.56-0.12
		c0.18-0.08,0.33-0.2,0.46-0.34c0.14-0.14,0.25-0.3,0.33-0.49c0.08-0.18,0.11-0.38,0.11-0.58c0-0.18-0.03-0.36-0.1-0.52l-1.5,0.67
		l-0.59-0.47v-2.2h-2.65v-0.51h5.83v0.51H150.32z"/>
	<path class="st1" d="M158.53,93.84c-0.74-0.54-1.61-0.88-2.52-0.96c-0.52-0.03-1.04,0.13-1.46,0.45c-0.2,0.17-0.36,0.38-0.46,0.62
		c-0.1,0.24-0.15,0.5-0.14,0.77h0.61v0.51h-0.61v4.57h-0.61v-4.57h-0.62v-0.51h0.62c-0.02-0.34,0.05-0.68,0.18-0.99
		c0.14-0.31,0.34-0.59,0.6-0.8c0.54-0.42,1.21-0.64,1.89-0.61c0.51,0.01,1.02,0.13,1.49,0.35c0.46,0.23,0.91,0.49,1.34,0.78
		L158.53,93.84z"/>
	<path class="st1" d="M158.09,95.24c0.08,0.29,0.25,0.54,0.49,0.7c0.24,0.17,0.54,0.24,0.83,0.2c0.09,0.01,0.18,0.01,0.27,0
		l0.45,0.55c-0.28,0.49-0.46,1.04-0.52,1.6c-0.05,0.53,0.05,1.07,0.28,1.55l-0.4,0.21c-0.28-0.42-0.42-0.91-0.41-1.42
		c0-0.32,0.03-0.63,0.1-0.94c0-0.13,0.12-0.46,0.27-0.97c-0.44-0.05-0.86-0.21-1.23-0.46c-0.18-0.12-0.34-0.27-0.46-0.45
		c-0.12-0.18-0.21-0.38-0.25-0.59c-0.26,0.15-0.49,0.36-0.65,0.62c-0.16,0.26-0.26,0.55-0.29,0.86c0,0.35,0.14,0.52,0.42,0.52
		c0.16,0,0.32-0.05,0.46-0.14c0.14-0.08,0.26-0.19,0.35-0.32h0.55c0.15,0.3,0.21,0.64,0.18,0.98c0,1.17-0.6,1.71-1.8,1.71
		c-0.24-0.01-0.48-0.07-0.7-0.18c-0.09,0-0.3-0.17-0.61-0.37c-0.31-0.2-0.45-0.8-0.78-1.47l0.34-0.32c0.21,0.55,0.49,1.06,0.85,1.53
		l0.4,0.2c0.13,0.07,0.28,0.11,0.44,0.12c0.3,0,0.6-0.09,0.84-0.27c0.13-0.1,0.23-0.23,0.29-0.38c0.07-0.15,0.09-0.31,0.09-0.47
		c0-0.18-0.05-0.35-0.15-0.5c-0.11,0.14-0.25,0.26-0.41,0.34c-0.16,0.08-0.33,0.13-0.51,0.13c-0.13,0.01-0.27-0.02-0.39-0.07
		c-0.12-0.06-0.23-0.14-0.32-0.25c-0.17-0.23-0.26-0.51-0.25-0.8c0.04-0.53,0.26-1.03,0.61-1.43h-2.28v-0.55h6.28v0.51H158.09z"/>
	<path class="st1" d="M161.47,95.24v4.01h0.32c0.52,0.01,1.04-0.13,1.49-0.39c0.59-0.32,0.89-0.72,0.89-1.19
		c0-0.47-0.25-0.79-0.75-0.79c-0.27,0.05-0.53,0.16-0.76,0.31l-0.23-0.53c0.36-0.26,0.78-0.39,1.22-0.38
		c0.16-0.01,0.33,0.03,0.47,0.1c0.15,0.07,0.27,0.18,0.37,0.32c0.19,0.27,0.28,0.6,0.27,0.93c-0.01,0.27-0.08,0.54-0.21,0.78
		c-0.13,0.24-0.31,0.45-0.52,0.61c-0.41,0.35-0.9,0.58-1.43,0.68c-0.58,0.1-1.16,0.14-1.74,0.12v-4.58h-0.5v-0.51h3.57v-0.16
		c0.01-0.17-0.03-0.33-0.1-0.48c-0.07-0.15-0.18-0.28-0.32-0.37c-0.26-0.2-0.57-0.31-0.9-0.3c-0.62,0.06-1.22,0.26-1.75,0.6
		l-0.18-0.42c0.59-0.41,1.28-0.64,1.99-0.67c0.48-0.01,0.95,0.17,1.3,0.51c0.18,0.16,0.32,0.35,0.41,0.57
		c0.09,0.22,0.14,0.46,0.13,0.7h0.67v0.53H161.47z"/>
	<polygon class="st1" points="166.4,95.25 166.4,99.83 165.81,99.83 165.81,95.25 165.07,95.25 165.07,94.73 167.07,94.73 
		167.07,95.25 	"/>
	<path class="st1" d="M172.3,95.24v4.58h-0.55v-0.47v-0.48c0-1.08-0.27-1.61-0.84-1.61c-0.1,0-0.2,0.03-0.29,0.08
		c-0.09,0.05-0.16,0.12-0.22,0.21c-0.12,0.17-0.2,0.36-0.22,0.57h-0.68c-0.01-0.22-0.08-0.43-0.21-0.61
		c-0.06-0.09-0.14-0.17-0.23-0.23c-0.1-0.05-0.2-0.09-0.31-0.09c-0.12,0-0.23,0.02-0.33,0.08c-0.1,0.05-0.19,0.13-0.25,0.23
		c-0.13,0.2-0.19,0.44-0.18,0.67c0,0.57,0.33,0.85,1,0.85h0.3l-0.19,0.6h-0.23c-0.2,0.01-0.39-0.03-0.57-0.1
		c-0.18-0.07-0.35-0.19-0.48-0.33c-0.25-0.31-0.39-0.7-0.39-1.1c0-0.4,0.14-0.79,0.39-1.1c0.14-0.14,0.3-0.26,0.48-0.33
		c0.18-0.07,0.38-0.11,0.57-0.1c0.24,0.02,0.47,0.1,0.67,0.24c0.2,0.14,0.35,0.33,0.45,0.55c0.35-0.52,0.69-0.79,1.05-0.79
		s0.55,0.25,0.76,0.73v-2.07h-4.86v-0.51h5.99v0.51H172.3z"/>
	<path class="st1" d="M175.87,97.8c0,0.34,0.07,0.67,0.21,0.97c0.05,0.16,0.15,0.3,0.28,0.4c0.13,0.1,0.29,0.17,0.45,0.18
		c0.15,0,0.31-0.05,0.44-0.13l0.18,0.52c-0.18,0.11-0.38,0.16-0.59,0.16c-0.99,0-1.48-0.79-1.48-2.36c0-0.85,0.55-1.79,1.68-2.81
		h0.84v0.5c-0.29,0.05-0.56,0.15-0.81,0.31c-0.25,0.16-0.46,0.36-0.63,0.6c-0.37,0.46-0.57,1.04-0.56,1.63"/>
	<path class="st1" d="M182.85,95.24v4.58h-0.55v-0.47v-0.48c0-1.08-0.28-1.61-0.84-1.61c-0.1,0-0.2,0.03-0.29,0.08
		c-0.09,0.05-0.16,0.12-0.22,0.21c-0.12,0.17-0.2,0.36-0.22,0.57h-0.68c-0.01-0.22-0.09-0.44-0.22-0.61
		c-0.06-0.09-0.14-0.17-0.23-0.23c-0.09-0.06-0.2-0.09-0.31-0.09c-0.12,0-0.23,0.02-0.34,0.08c-0.1,0.05-0.19,0.13-0.26,0.23
		c-0.12,0.2-0.18,0.44-0.18,0.67c0,0.57,0.33,0.85,1,0.85h0.21l-0.19,0.6h-0.23c-0.2,0.01-0.39-0.03-0.57-0.1
		c-0.18-0.08-0.34-0.19-0.48-0.33c-0.25-0.31-0.39-0.7-0.39-1.1c0-0.4,0.14-0.79,0.39-1.1c0.14-0.14,0.3-0.26,0.48-0.33
		c0.18-0.07,0.38-0.11,0.58-0.1c0.24,0.02,0.47,0.1,0.66,0.24c0.2,0.14,0.35,0.33,0.45,0.55c0.34-0.52,0.69-0.79,1.05-0.79
		c0.36,0,0.55,0.25,0.75,0.73v-2.07h-4.85v-0.51h5.99v0.51H182.85z"/>
	<path class="st1" d="M187.92,95.24v4.58h-0.6v-0.32c-0.03-0.28-0.11-0.55-0.24-0.8s-0.31-0.46-0.53-0.64
		c-0.37-0.43-0.89-0.69-1.45-0.74c-0.21,0-0.41,0.07-0.56,0.21c-0.07,0.06-0.14,0.15-0.18,0.24c-0.04,0.09-0.06,0.19-0.06,0.29
		c0,0.1,0.01,0.2,0.05,0.3c0.04,0.09,0.1,0.18,0.17,0.25c0.15,0.14,0.35,0.21,0.55,0.21c0.13,0,0.26-0.03,0.39-0.09l0.18,0.56
		c-0.23,0.1-0.48,0.14-0.73,0.13c-0.16,0-0.32-0.04-0.46-0.11c-0.15-0.07-0.27-0.17-0.38-0.29c-0.22-0.26-0.35-0.59-0.35-0.94
		c0-0.18,0.03-0.36,0.09-0.53c0.07-0.17,0.17-0.32,0.29-0.45c0.12-0.13,0.27-0.23,0.43-0.3c0.16-0.07,0.34-0.1,0.51-0.1
		c0.48,0.03,0.95,0.19,1.35,0.47c0.4,0.27,0.73,0.65,0.94,1.09v-3.04h-4.1v-0.51h5.21v0.51H187.92z"/>
	<path class="st1" d="M190.68,100.17c-0.47,0.06-0.94-0.06-1.32-0.33c-0.24-0.26-0.43-0.56-0.56-0.89
		c-0.13-0.33-0.18-0.69-0.18-1.04c0.01-0.5,0.16-0.98,0.42-1.4c0.29-0.44,0.61-0.86,0.97-1.25h-1.77v-0.51h2.83v0.51
		c-0.51,0.22-0.95,0.57-1.29,1.02c-0.36,0.43-0.57,0.97-0.6,1.53c0,1.24,0.5,1.85,1.51,1.85c0.17-0.01,0.33-0.07,0.45-0.19v0.6
		C191.01,100.12,190.85,100.16,190.68,100.17"/>
	<path class="st1" d="M191.32,95.24v2.05c0.74-0.51,1.53-0.93,2.35-1.28l0.57,0.77c-0.25,0.54-0.4,1.12-0.44,1.71
		c0.01,0.44,0.1,0.88,0.26,1.3l-0.44,0.21c-0.17-0.4-0.28-0.82-0.33-1.26c0-0.64,0.07-1.28,0.19-1.9c-0.83,0.39-1.6,0.89-2.28,1.5
		l-0.49-0.47v-2.62h-0.44v-0.51h4.38v0.51H191.32z"/>
	<path class="st1" d="M199.13,95.24v4.58h-0.59v-0.32c-0.03-0.28-0.11-0.55-0.24-0.8c-0.13-0.25-0.31-0.46-0.52-0.64
		c-0.37-0.43-0.89-0.69-1.45-0.74c-0.21,0-0.41,0.07-0.56,0.21c-0.07,0.06-0.13,0.15-0.18,0.24c-0.04,0.09-0.06,0.19-0.06,0.29
		c0,0.1,0.02,0.2,0.05,0.3c0.04,0.09,0.09,0.18,0.17,0.25c0.15,0.14,0.35,0.21,0.55,0.21c0.14-0.01,0.27-0.03,0.4-0.09l0.17,0.56
		c-0.23,0.1-0.48,0.14-0.73,0.13c-0.16,0-0.32-0.04-0.46-0.11c-0.15-0.07-0.27-0.17-0.38-0.3c-0.23-0.26-0.36-0.59-0.35-0.94
		c0-0.18,0.03-0.36,0.09-0.53c0.07-0.17,0.17-0.32,0.29-0.45c0.12-0.13,0.27-0.23,0.43-0.3c0.16-0.07,0.34-0.1,0.51-0.1
		c0.48,0.03,0.95,0.2,1.35,0.47c0.4,0.27,0.73,0.65,0.95,1.09v-3.04h-4.11v-0.51h5.21v0.51H199.13z"/>
	<path class="st0" d="M84.64,68.37c0,1.04-0.05,2.07-0.13,3.1C84.16,75.8,83.08,80.04,81.3,84c-0.69,1.54-1.48,3.03-2.37,4.46
		c-3.05,4.93-7.19,9.08-12.08,12.12c-4.89,3.04-10.42,4.89-16.13,5.4c-5.72,0.51-11.47-0.33-16.81-2.46
		c-5.34-2.13-10.13-5.48-13.98-9.8c-3.85-4.32-6.66-9.48-8.22-15.09c-1.56-5.61-1.81-11.5-0.75-17.23
		c1.07-5.72,3.42-11.12,6.89-15.76c3.46-4.64,7.94-8.41,13.08-11c-0.99,1.28-1.88,2.63-2.67,4.05c-0.07,0.12-0.13,0.23-0.19,0.35
		c-0.5,0.41-0.98,0.85-1.45,1.27c-0.47,0.42-1.13,1.08-1.68,1.67c-0.12,0.13-0.24,0.26-0.35,0.38c-0.11,0.13-0.24,0.26-0.35,0.4
		c-0.11,0.14-0.39,0.44-0.58,0.67c-0.38,0.46-0.74,0.92-1.09,1.41c-1.54,2.07-2.83,4.32-3.84,6.71c-0.1,0.24-0.2,0.48-0.29,0.72
		c-0.09,0.24-0.22,0.56-0.32,0.85c-0.06,0.14-0.11,0.29-0.15,0.43c-0.16,0.44-0.3,0.85-0.44,1.31l-0.25,0.85l-0.13,0.46
		c-0.07,0.3-0.14,0.59-0.21,0.85c-0.22,0.95-0.39,1.9-0.53,2.88c0,0.25-0.06,0.5-0.09,0.74c-0.03,0.25-0.07,0.44-0.07,0.63
		c0,0.2-0.05,0.57-0.07,0.85c0,0.02,0,0.05,0,0.07l-0.05,0.85v1.47c0,7.31,2.4,14.41,6.82,20.19c4.42,5.77,10.6,9.89,17.57,11.71
		c6.97,1.81,14.35,1.22,20.95-1.69c6.61-2.91,12.07-7.96,15.54-14.37c0.3-0.56,0.6-1.14,0.84-1.71c0-0.01,0-0.03,0-0.04
		c1.89-4.07,2.94-8.48,3.08-12.98v-1.08c0-1.08-0.05-2.13-0.15-3.18l0.16,0.13c0.5,0.42,0.98,0.85,1.46,1.31
		c0.45-0.78,0.93-1.52,1.45-2.25c0.3,1.46,0.51,2.93,0.64,4.41c0.1,1.1,0.15,2.22,0.15,3.35"/>
	<path class="st2" d="M80.93,64.59v1.08c-0.06,4.5-1.11,8.94-3.08,12.98v0.04c0,0.04,0,0,0,0c-0.27,0.59-0.55,1.16-0.84,1.71
		c-2.35,4.32-5.61,8.05-9.56,10.92c-4.85,3.54-10.56,5.66-16.51,6.11c-5.95,0.46-11.92-0.76-17.23-3.53
		c-5.31-2.76-9.77-6.96-12.89-12.13c-3.12-5.17-4.76-11.11-4.77-17.17v-1.47l0.05-0.85c0.01-0.02,0.01-0.05,0-0.07
		c0-0.29,0-0.58,0.07-0.85c0.07-0.27,0-0.39,0.07-0.58c0.07-0.19,0.06-0.5,0.09-0.74c0.13-0.97,0.31-1.93,0.53-2.88
		c0.07-0.3,0.14-0.59,0.21-0.85l0.13-0.46l0.25-0.85c0.13-0.44,0.28-0.85,0.44-1.31c0.04-0.15,0.09-0.29,0.15-0.44
		c0.1-0.28,0.21-0.57,0.32-0.85c0.11-0.28,0.19-0.48,0.29-0.71c1.02-2.41,2.32-4.69,3.89-6.79c0.35-0.49,0.71-0.95,1.09-1.41
		c0.19-0.23,0.39-0.46,0.58-0.67c0.19-0.21,0.23-0.27,0.35-0.4l0.35-0.38c0.56-0.57,1.12-1.12,1.68-1.66
		c0.47-0.44,0.95-0.85,1.45-1.27c-0.06,0.12-0.12,0.24-0.18,0.36l-0.19,0.32c-1.95,4.18-3.15,8.68-3.55,13.29
		c-0.12,1.31-0.18,2.64-0.18,3.99c0,17.22,9.96,31.17,22.24,31.17h0.15h1.14c5.19,0,10.17-2.09,13.85-5.81
		c3.68-3.72,5.75-8.77,5.76-14.05V67.8c-0.14-5.24-2.31-10.21-6.04-13.83c7.14,0.19,14.02,2.75,19.58,7.31
		c0.06,0.04,0.12,0.09,0.17,0.14C80.89,62.45,80.94,63.51,80.93,64.59"/>
	<path class="st0" d="M72.23,44.09c0,0-26.49-5.07-38.93,18.3c0,0,2.2-16.22,21.12-23.52l-3.71-7.1c0,0,7.57-6.96,20.86-5.15
		L72.23,44.09z"/>
	<path class="st2" d="M39.38,56.54c0,0,10.58-14.03,34.77-10.38l-0.29-8.19c0,0,10.09-0.32,18.26,6.83L82.05,60.24
		c0,0-6.91-8.17-21.25-8.37c-7.41-0.17-14.75,1.43-21.43,4.68"/>
	<path class="st2" d="M28.96,69.25c0,0-12.08-26.76,16-44.01l6.73,12.52c-3.45,1.37-6.64,3.36-9.41,5.86
		c-5.27,4.64-11.04,12.5-13.29,25.61"/>
	<path class="st2" d="M80.98,61.56c0.09,1,0.14,2.01,0.14,3.02v1.02v0.07c-0.13,4.51-1.19,8.95-3.09,13.04c0,0.02,0,0.03,0,0.05
		c-0.25,0.55-0.55,1.13-0.84,1.71c-2.38,4.35-5.68,8.1-9.67,10.99c-4.87,3.55-10.61,5.67-16.59,6.13
		c-5.98,0.45-11.97-0.77-17.31-3.55c-5.34-2.78-9.82-6.99-12.95-12.19c-3.13-5.19-4.79-11.17-4.79-17.25v-1.47l0.05-0.9v-0.08
		c0-0.33,0.05-0.61,0.08-0.85c0.03-0.24,0-0.34,0.06-0.52v-0.11c0-0.23,0.06-0.46,0.09-0.7c0.13-0.96,0.31-1.94,0.53-2.89
		c0.05-0.24,0.11-0.48,0.17-0.71v-0.18c0.04-0.15,0.08-0.32,0.13-0.47c0.05-0.15,0.16-0.58,0.25-0.85c0.14-0.49,0.29-0.92,0.43-1.32
		c0-0.14,0.09-0.27,0.16-0.44c0.11-0.31,0.22-0.59,0.32-0.85c0.1-0.26,0.18-0.44,0.29-0.72c1.02-2.4,2.32-4.66,3.86-6.75
		c0.38-0.51,0.74-0.97,1.11-1.41c0.16-0.21,0.35-0.43,0.57-0.68c0.11-0.12,0.23-0.26,0.36-0.4l0.35-0.39
		c0.54-0.57,1.09-1.14,1.68-1.66c0.59-0.53,0.95-0.85,1.45-1.28L28,38.9l0.34-0.29l-0.43,0.79v0.05c-0.39,0.32-0.77,0.67-1.14,1.02
		c-0.57,0.53-1.13,1.08-1.68,1.66l-0.35,0.38l-0.35,0.39l-0.57,0.67c-0.36,0.44-0.71,0.85-1.09,1.4c-1.53,2.07-2.81,4.31-3.82,6.68
		c-0.12,0.26-0.21,0.5-0.29,0.7c-0.08,0.21-0.22,0.55-0.33,0.85c-0.06,0.16-0.11,0.3-0.15,0.43c-0.14,0.4-0.28,0.85-0.43,1.31
		c-0.09,0.29-0.18,0.59-0.25,0.85l-0.13,0.46l-0.04,0.17c-0.06,0.23-0.11,0.47-0.17,0.7c-0.22,0.95-0.4,1.91-0.52,2.87
		c0,0.23-0.07,0.46-0.09,0.69v0.11l-0.05,0.51c0,0.25-0.05,0.52-0.07,0.85v0.06c0,0.29,0,0.59-0.06,0.85v1.46
		c0,6.02,1.64,11.92,4.73,17.05c3.09,5.14,7.51,9.31,12.78,12.06c5.27,2.75,11.19,3.97,17.1,3.54c5.91-0.44,11.59-2.52,16.41-6.02
		c3.89-2.86,7.11-6.56,9.43-10.83c0.32-0.58,0.61-1.16,0.84-1.71v-0.06c1.88-4.04,2.92-8.43,3.05-12.9V65.6v-1.01
		c0-1.06-0.05-2.12-0.15-3.16v-0.18L80.98,61.56z"/>
	<path class="st0" d="M39.65,75.92l0.98,0.85c0.37-0.22,0.7-0.51,0.97-0.85c0.07-0.08,0.11-0.17,0.11-0.28c0-0.1-0.04-0.2-0.11-0.28
		h-1.68c-0.11,0-0.15,0-0.17,0.07c-0.07,0.14-0.09,0.31-0.06,0.46"/>
	<path class="st0" d="M41.24,77.2l0.61,0.75c0-0.38-0.07-0.85-0.09-1.23C41.57,76.86,41.4,77.02,41.24,77.2"/>
	<path class="st0" d="M39.59,76.73c0,0.34-0.06,0.85-0.09,1.22l0.62-0.75C39.96,77.02,39.78,76.87,39.59,76.73"/>
	<path class="st0" d="M46.5,62.62h-0.05c-0.74,0.39-1.45,0.82-2.14,1.31l0.05,0.09c0.09,0.11,0.22,0.19,0.35,0.24
		c0.28-0.16,1.61-0.98,1.97-1.28c0.04-0.02,0.07-0.06,0.08-0.1c0.02-0.04,0.02-0.08,0.01-0.13c-0.02-0.05-0.06-0.09-0.11-0.12
		c-0.05-0.03-0.1-0.05-0.15-0.05"/>
	<path class="st0" d="M47.51,62.01c0,0.08-0.04,0.2-0.08,0.38c-0.08,0.28-0.13,0.56-0.17,0.85c0.13-0.09,0.25-0.21,0.33-0.35
		c0.09-0.14,0.14-0.29,0.16-0.46c0.03-0.06,0.04-0.13,0.04-0.2c0-0.07-0.01-0.14-0.04-0.2c-0.02-0.02-0.04-0.04-0.07-0.05
		c-0.03-0.01-0.05-0.02-0.08-0.02h-0.08"/>
	<path class="st0" d="M48.44,64.45c0.58,0,1.54,1.21,1.76,1.58c0.27,0.83,0.41,1.69,0.41,2.56v0.1c2.59-0.33,3.05-0.85,3.36-2.68
		c0.06-0.77-0.03-1.54-0.26-2.27c-0.23-0.73-0.61-1.41-1.1-2c-0.41-0.06-0.83-0.08-1.25-0.06c-1.09,0-2.52,0.06-3.04,0.08
		c-0.01,0.19,0.03,0.37,0.09,0.55c0.07,0.18,0.17,0.34,0.3,0.47c0.13,0.14,0.28,0.24,0.45,0.32c0.17,0.07,0.35,0.12,0.54,0.12
		c0.19,0.04,0.34,0.07,0.36,0.22v0.19h-0.18h-0.44c-0.23,0.03-0.47,0-0.68-0.09c-0.22-0.09-0.41-0.23-0.56-0.41
		c-0.36,0.41-0.75,0.8-1.16,1.16v1.93c0.27,0.09,0.56,0.13,0.84,0.1h0.32c0-0.38,0.07-1.34,0.07-1.71v-0.17H48.44z"/>
	<path class="st0" d="M45.08,64.93c-0.05,0.13-0.06,0.27-0.05,0.42c0.01,0.14,0.06,0.28,0.13,0.4c0.13,0.15,0.3,0.27,0.48,0.35
		c0.19,0.08,0.39,0.11,0.58,0.1c0.07-0.59,0.1-1.71,0.12-2.33C45.97,64.18,45.32,64.71,45.08,64.93"/>
	<path class="st0" d="M44.24,66.72c1.18,0.95,2.51,1.67,3.94,2.13v-1.78c-0.22-0.05-0.45-0.07-0.68-0.05h-0.8
		c-0.85-0.05-1.65-0.41-2.25-1.02l-0.04-0.05v-0.06c0-1.36-0.54-1.49-0.84-1.55h-0.08c-0.15,0.01-0.29,0.06-0.42,0.14
		c-0.12,0.08-0.22,0.2-0.29,0.33c-0.01,0.02-0.01,0.04-0.01,0.06c0,0.02,0.01,0.04,0.01,0.06c0.04,0,0.16,0.13,0.52,0.14
		c0.36,0.01,0.53,0.35,0.56,0.73c-0.01,0.17,0.01,0.34,0.07,0.5c0.06,0.16,0.15,0.3,0.27,0.42H44.24z"/>
	<path class="st0" d="M43.06,66.98h0.13v0.08l0.08,0.14c0.12,0.2,0.14,0.25,0.26,0.25c0.04-0.04,0.06-0.1,0.08-0.15
		c0.03-0.16,0.03-0.33,0-0.49c-0.03-0.16-0.1-0.31-0.19-0.45c-0.37-0.49-0.57-0.73-1.05-0.74c-0.24,0.07-0.46,0.19-0.65,0.36
		c-0.19,0.17-0.34,0.38-0.43,0.61c-0.02,0.08-0.01,0.16,0.02,0.24c0.03,0.07,0.09,0.13,0.17,0.17c0.16-0.16,0.32-0.33,0.46-0.5
		l0.3,0.17c-0.06,0.16-0.06,0.34,0,0.5c0.02,0.04,0.05,0.08,0.09,0.1c0.04,0.03,0.08,0.05,0.12,0.06c0.05,0.01,0.1,0.01,0.15,0
		c0.05,0,0.06,0,0.1-0.1c0.02-0.08,0.07-0.14,0.13-0.19c0.06-0.05,0.14-0.08,0.22-0.08"/>
	<path class="st0" d="M48.86,65.8v3.49c0.39-0.1,0.75-0.27,1.07-0.51c-0.13-1.71-0.51-2.8-1.07-2.96"/>
	<path class="st0" d="M45.89,68.62c0.31,0.66,0.71,1.26,1.2,1.79c0.06,0,0.24-0.14,0.69-0.7C47.13,69.38,46.5,69.02,45.89,68.62"/>
	<path class="st0" d="M50.52,69.38c-0.58,0.42-1.22,0.73-1.9,0.95c-0.14,0.04-0.27,0.09-0.4,0.15c-0.05,0.05-0.09,0.11-0.12,0.17
		c-0.03,0.06-0.04,0.13-0.04,0.2c-0.02,0.07-0.02,0.14,0,0.21c1.05-0.31,2.07-0.7,3.05-1.16c-0.17-0.23-0.39-0.41-0.64-0.53"/>
	<path class="st0" d="M59.77,80.18c0.05,0.33,0.07,0.67,0.08,1.01c0.09-0.02,0.17-0.06,0.24-0.11c0.07-0.05,0.13-0.12,0.17-0.2
		c0.06-0.44,0.07-0.88,0.05-1.32c-0.01-0.25-0.01-0.5,0-0.75c0.02-0.09,0.05-0.18,0.08-0.27c0.09-0.27,0.28-0.85,0.13-1.05
		c0,0-0.06-0.09-0.23-0.09h-0.84c-1.18,0.03-2.36-0.05-3.52-0.23c-0.85-0.23-1.73-0.37-2.62-0.42c-0.16-0.01-0.32,0.01-0.47,0.07
		c-0.41,0.27-0.73,0.65-0.93,1.09v0.13l-0.13,0.04H51.7c-0.05,0-0.09-0.01-0.13-0.04c-0.04-0.02-0.08-0.05-0.1-0.09
		c-0.1-0.14-0.08-0.41,0.07-0.85l0.1-0.28c0.34-0.87,0.58-1.77,0.7-2.7c-0.74,0.34-2.3,1.24-2.71,1.48c0.2,0.63,0.45,1.24,0.73,1.84
		c0.63,1.33,0.97,1.65,1.06,1.66c0.27,0,1.11-0.14,2.08-0.3c1.52-0.29,3.06-0.49,4.61-0.59c0.2-0.01,0.41,0.01,0.61,0.06h0.05v0.04
		l0.1,0.14c0.45,0.47,0.76,1.06,0.9,1.71"/>
	<path class="st0" d="M41.14,69.09c-0.12,0-0.31,0.14-0.31,0.68c0,0.06,0.06,0.14,0.09,0.14c0.03,0,0.09-0.05,0.17-0.27v-0.11h4.3
		c-0.1-0.16-0.19-0.33-0.26-0.5L41.14,69.09z"/>
	<path class="st0" d="M44.95,62.03c0,0-2.27,0.51-2.2-0.67c0-0.39,0.26-0.55,0.49-0.5c0-0.21-0.45-0.85,0.55-1.08
		c0.29-0.36,0.53-0.75,0.72-1.17c0.09-0.3,0.37-0.71,1.27-0.51c0.78,0.23,1.48,0.69,2,1.32c0.52,0,1.07,0.1,0.84,0.2
		c-0.23,0.1-0.31,0.31-0.27,0.34c0.04,0.03,0.33,0.2-0.59,0.21c0,0.2,0.2,0.25,0.36,0.34c0.16,0.09-0.04,0.21,0,0.26
		c0.04,0.04,0.13,0.5-0.33,0.32c-0.46-0.18-0.5-0.34-0.62-0.32c-0.13,0.02-0.46,0.08-0.41,0.21c0.05,0.13,0.5,0.43-0.08,0.54
		c-0.12,0.1,0.18,0.27-0.04,0.36c-0.22,0.09-1.19,0.85-1.68,1.05c-0.45,0-0.6-0.13-0.55-0.32c0.04-0.2,0.24-0.32,0.54-0.36
		c0-0.13,0-0.23-0.04-0.21"/>
	<polygon class="st0" points="40.22,70.45 38.27,70.45 38.13,69.69 40.22,69.69 	"/>
	<polygon class="st0" points="53.53,70.4 60.77,70.4 60.77,69.29 52.09,69.29 	"/>
	<path class="st0" d="M46.12,72.55h0.04c1.03,0.16,2.05,0.39,3.05,0.69c0.38-0.19,0.61-0.44,0.61-0.53l-0.09-0.25h0.26
		c0.17,0.02,0.33,0.08,0.47,0.17c0.16,0.1,0.34,0.16,0.52,0.18c0.04,0.01,0.08,0.01,0.12,0c0.88-0.55,1.72-1.15,2.52-1.82
		c-0.44-0.36-0.95-0.62-1.5-0.76c-0.22,0.07-0.44,0.16-0.65,0.26c-0.99,0.51-2.07,0.82-3.17,0.93c-0.33,0.02-0.66-0.05-0.97-0.19
		c-0.42,0.23-0.78,0.55-1.04,0.96c-0.17,0.24-0.18,0.36-0.18,0.38"/>
	<path class="st0" d="M46.5,73.23c0.19,0,2.39,0.85,2.93,0.74c0.55-0.11,0.66-0.65,0.97-0.62c0.31,0.03,0.46,0.32,0.99,0
		c0.58-0.4,1.11-0.86,1.61-1.37c0,0.35,0,1.31-2.03,2.23c-2.03,0.92-6.73,2.29-6.83,2.94c0.41,0,0.81-0.11,1.16-0.33
		c0.24,0.24,0.43,0.53,0.53,0.85c0.1,0.32,0.13,0.67,0.07,1.01c-0.12,1.02-0.89,2.8-0.89,3.3v2.92c0,0.22,0.4,1.49-0.19,1.39
		c-0.39-0.08-0.8-0.1-1.19-0.06c-0.24,0-0.71,0.44-1.13,0.38c-0.41-0.06-1.14-0.27-1.11-0.48c0.03-0.21,0.5-0.21,0.9-0.37
		c0.4-0.15,0.67-0.61,1.45-0.85c0-0.53-0.26-4.35-0.26-5.12c0-0.78-0.27-2.47,0.08-3.18C43.9,75.91,45.66,73.2,46.5,73.23"/>
	<path class="st0" d="M46.19,70.08c0.06,0.22,0.17,0.42,0.32,0.58l-4.5-0.29c0,0-0.52-0.33-0.32-0.4L46.19,70.08z"/>
	<path class="st0" d="M36.95,70.49h0.93c0,0,0.29-0.13,0-0.49c-0.29-0.36-0.88-0.56-0.46-1.2c-0.43-0.08-1.08-0.21-0.97,1.2H36
		c-0.07-0.25-0.24-0.47-0.45-0.62c-0.22-0.15-0.48-0.21-0.74-0.18c-1.23,0.21-2.44,0.57-3.59,1.07c1.18,0.35,2.39,0.61,3.61,0.8
		c0.24-0.02,0.47-0.1,0.68-0.22c0.21-0.13,0.39-0.3,0.52-0.5h0.39c0.08,0.28,0.19,0.54,0.35,0.79v0.85
		c-0.13,0.06-0.24,0.16-0.3,0.28c-0.07,0.13-0.09,0.27-0.07,0.41c0.06,0.53,0.34,0.51,0.43,0.51c0.08,0,0.21-0.17,0.57-0.17
		c0.08-0.17,0.1-0.36,0.04-0.54c-0.05-0.18-0.17-0.33-0.33-0.43v-0.63c0,0,0.38-0.24,0.33-0.46c-0.05-0.22-0.43-0.21-0.43-0.5"/>
	<path class="st0" d="M42.4,74.87c0.2-0.16,0.34-0.39,0.41-0.64v-2.69c0-0.61-1.14-1.14-1.19-1.15h-0.07l-0.05,0.05
		c-0.17,0.17-0.39,0.29-0.63,0.33c-0.14,0.01-0.28-0.02-0.4-0.07c-0.13-0.06-0.24-0.15-0.32-0.26h-0.05c-0.92,0-1.36,1.13-1.39,1.17
		v0.04c-0.05,0.83-0.05,1.66,0,2.48c0.09,0.26,0.22,0.5,0.4,0.7c-0.18,0.66-1.12,4.27,0.13,4.68v0.52h3.02v-0.55
		c1.14-0.53,0.41-3.6,0.17-4.5L42.4,74.87z M38.93,71.58c0.06-0.14,0.44-0.96,1.1-1c0.11,0.12,0.24,0.21,0.38,0.27
		c0.14,0.06,0.3,0.09,0.46,0.09c0.27-0.04,0.53-0.16,0.73-0.34c0.32,0.14,0.97,0.5,0.97,0.85v2.67c-0.05,0.18-0.14,0.34-0.28,0.46
		h-0.6v-1.14h-2.02v1.14h-0.41c-0.16-0.17-0.28-0.38-0.36-0.61c-0.05-0.8-0.05-1.59,0-2.39L38.93,71.58z M41.07,79.07H40.4
		c-0.08,0-0.15-0.03-0.21-0.09c-0.05-0.06-0.09-0.13-0.09-0.21c0-0.08,0.03-0.16,0.09-0.21c0.06-0.06,0.13-0.09,0.21-0.09h0.67
		c0.08,0,0.15,0.03,0.21,0.09c0.06,0.06,0.09,0.13,0.09,0.21c0,0.08-0.03,0.16-0.09,0.21C41.22,79.04,41.15,79.07,41.07,79.07
		 M42.15,79.15l-1.48-1.71l-1.36,1.71c-0.92-0.3-0.34-3.17,0-4.35l2.85,0.04c0.32,1.19,0.84,3.85,0,4.27"/>
	<path class="st0" d="M41.55,73.1h0.18v-0.19c0-0.05-0.02-0.1-0.05-0.13c-0.03-0.04-0.08-0.06-0.13-0.06h-1.68
		c-0.03,0-0.05,0-0.07,0.01c-0.02,0.01-0.04,0.02-0.06,0.04c-0.02,0.02-0.03,0.04-0.04,0.06c-0.01,0.02-0.02,0.05-0.02,0.07v0.19
		H41.55L41.55,73.1z"/>
	<path class="st0" d="M39.1,80.19h-0.17v0.2c0,0.03,0,0.05,0.01,0.08c0.01,0.02,0.02,0.05,0.04,0.07c0.02,0.02,0.04,0.03,0.06,0.04
		c0.02,0.01,0.05,0.02,0.08,0.02h3.13c0.05,0,0.1-0.02,0.14-0.06c0.04-0.04,0.06-0.09,0.06-0.14v-0.2H39.1L39.1,80.19z"/>
</g>
</svg>
