<?xml version="1.0" encoding="utf-8"?>
<!-- Generator: Adobe Illustrator 26.0.3, SVG Export Plug-In . SVG Version: 6.00 Build 0)  -->
<svg version="1.1" id="Layer_1" xmlns="http://www.w3.org/2000/svg" xmlns:xlink="http://www.w3.org/1999/xlink" x="0px" y="0px"
	 viewBox="0 0 203.64 120.23" style="enable-background:new 0 0 203.64 120.23;" xml:space="preserve">
<style type="text/css">
	.st0{fill-rule:evenodd;clip-rule:evenodd;fill:#8B3392;}
	.st1{fill:#8B3392;}
</style>
<g>
	<polygon class="st0" points="145.4,18.03 118.64,44.79 120.51,59.81 125.45,49.48 140.7,68.97 162.07,3.24 90.94,32.81 
		110.19,42.91 	"/>
	<g>
		<path class="st1" d="M122.16,64.98c0,0-22.65,0-28.17,0c-21.48,3.29-23.71,34.51-0.23,38.73h28.41V75.54
			c9.47,0.31,11.42,12.13,4.46,16.43c1.41,1.64,7.04,7.75,7.04,7.75C148.45,86.96,140,65.99,122.16,64.98z M111.84,93.14
			c0,0-14.55,0-15.73,0c-9.74,0.59-12.91-15.49-0.94-17.61c3.52,0,16.67,0,16.67,0V93.14z"/>
	</g>
	<path class="st0" d="M181.08,79.06c-4.69,0-10.33,0-10.33,0l-4.46,10.33c0,0,11.97,0,13.15,0c2.64-0.12,2.76,3.76,0,3.99
		c-3.4,0-22.77,0-22.77,0V75.54h34.98V64.98c0,0-4.87,0-5.16,0c-1.53-21.83-27.64-22.48-34.51-10.56c1.35,1.11,7.75,6.81,7.75,6.81
		c3.93-6.16,14.85-5.87,16.43,3.76h-29.81v38.73h33.57c7.63-0.12,11.15-5.75,11.97-10.56C192.35,85.4,187.65,80.23,181.08,79.06z"/>
	<path class="st0" d="M80.61,64.98H66.99c-4.34,5.28-11.85,26.64,3.05,42.72c0,0,6.46-5.52,7.75-6.57
		C73.21,96.67,65.58,78.47,80.61,64.98z"/>
	<path class="st0" d="M45.95,108.07c0,4.71-3.82,8.53-8.53,8.53s-8.53-3.82-8.53-8.53c0-4.71,3.82-8.53,8.53-8.53
		S45.95,103.36,45.95,108.07z"/>
	<g>
		<g>
			<path class="st0" d="M27.79,64.98c-21.48,3.29-23.71,34.51-0.23,38.73h0.16c1.67-3.7,5.38-6.28,9.71-6.28s8.04,2.58,9.71,6.28
				h8.84c0-1.29,0-38.73,0-38.73S33.31,64.98,27.79,64.98z M45.63,93.14c0,0-14.55,0-15.73,0c-9.74,0.59-12.91-15.49-0.94-17.61
				c3.52,0,16.67,0,16.67,0V93.14z"/>
		</g>
	</g>
	<g>
		<g>
			<g>
				<path class="st0" d="M37.89,55.82c3.46-0.59,5.16-7.69-0.47-9.27c-0.65,0-9.15,0-9.15,0v13.5h3.76v-4.23l4.23,4.23h5.87
					L37.89,55.82z M37.44,51.05c0,0.49-0.4,0.89-0.89,0.89h-4.49v-1.88h4.49c0.49,0,0.89,0.4,0.89,0.89V51.05z"/>
			</g>
		</g>
		<g>
			<g>
				<path class="st0" d="M48.65,46.33c-3.78,0-6.84,3.06-6.84,6.84c0,3.78,3.06,6.84,6.84,6.84c3.78,0,6.84-3.06,6.84-6.84
					C55.49,49.4,52.43,46.33,48.65,46.33z M48.65,56.18c-1.66,0-3.01-1.35-3.01-3.01c0-1.66,1.35-3.01,3.01-3.01
					c1.66,0,3.01,1.35,3.01,3.01C51.65,54.83,50.31,56.18,48.65,56.18z"/>
			</g>
		</g>
		<path class="st0" d="M87.45,50.22h6.15v-3.96h-5.2c-4.09,0-7.44,3.09-7.44,6.86c0,3.77,3.35,6.86,7.44,6.86h5.2v-3.96h-6.15
			c-0.9,0-1.71-0.43-2.22-1.1h8.37v-3.6h-8.37C85.75,50.65,86.55,50.22,87.45,50.22z"/>
		<g>
			<path class="st0" d="M63.02,56.01c-1.55,0-2.82-1.27-2.82-2.82v-0.16c0-1.55,1.27-2.82,2.82-2.82h5.84v-3.96h-5.24
				c-4.09,0-7.44,3.09-7.44,6.86c0,3.77,3.35,6.86,7.44,6.86h5.24v-3.96H63.02z"/>
		</g>
		<polygon class="st0" points="107.88,46.52 94.63,46.52 94.63,50.06 99.48,50.06 99.48,59.77 103.03,59.77 103.03,50.06 
			107.88,50.06 		"/>
		<polygon class="st1" points="76.34,53.09 82.86,46.52 77.59,46.52 73.92,50.21 73.92,46.52 70.37,46.52 70.37,59.77 73.92,59.77 
			73.92,55.97 77.69,59.77 82.96,59.77 		"/>
	</g>
	<g>
		<path class="st1" d="M129.69,110.28c-0.59,0.12-1.1,0.48-1.55,1.1c-0.43,0.59-0.64,1.19-0.64,1.79c0,0.36,0.08,0.72,0.23,1.06
			c0.19,0.43,0.45,0.65,0.77,0.65c0.17,0,0.38-0.09,0.64-0.27l0.37,0.98c-0.33,0.2-0.66,0.3-0.97,0.3c-0.43,0-0.84-0.16-1.23-0.48
			c-0.23-0.19-0.45-0.54-0.65-1.05c-0.1-0.26-0.15-0.64-0.15-1.15v-0.36c0-0.8,0.43-1.71,1.28-2.71c0.18-0.21,0.49-0.5,0.91-0.88
			h1.34v0.98C129.91,110.26,129.8,110.27,129.69,110.28z"/>
		<path class="st1" d="M135.63,110.24v5.58h-1.11v-0.72c0-0.25-0.19-0.56-0.57-0.95c-0.28-0.29-0.58-0.55-0.9-0.77
			c-0.35-0.24-0.72-0.36-1.13-0.36c-0.42,0-0.72,0.18-0.91,0.54c-0.02,0.04-0.03,0.09-0.03,0.15c0,0.15,0.07,0.28,0.22,0.4
			c0.15,0.12,0.29,0.18,0.44,0.18c0.12,0,0.4-0.09,0.85-0.26l0.33,1.01c-0.5,0.25-0.91,0.38-1.24,0.38c-0.37,0-0.71-0.1-1.02-0.31
			c-0.31-0.21-0.53-0.48-0.68-0.82c-0.06-0.15-0.09-0.33-0.09-0.54c0-0.63,0.26-1.11,0.78-1.45c0.36-0.24,0.75-0.36,1.16-0.36
			c0.04,0,0.08,0,0.11,0c-0.01-0.2-0.11-0.41-0.31-0.66c-0.2-0.24-0.39-0.36-0.58-0.36h-1.23v-0.68h-0.5v-0.98h7.18v0.98H135.63z
			 M134.51,110.24h-2.62c0.74,0.48,1.13,1.11,1.16,1.88c0.47,0.19,0.96,0.55,1.47,1.11V110.24z"/>
		<path class="st1" d="M137.8,110.24v5.58h-1.11v-5.58h-0.82v-0.98h2.68v0.98H137.8z"/>
		<path class="st1" d="M143.17,110.24h-5.02v-0.98h6.95v0.98h-0.77v5.58h-0.99c-0.09-0.29-0.58-0.73-1.45-1.33
			c-0.36-0.25-0.85-0.49-1.47-0.72c-0.66-0.25-1.19-0.37-1.59-0.37l-0.3-1.11c0.26-0.21,0.98-0.57,2.16-1.08
			C141.19,111,142.02,110.68,143.17,110.24z M143.24,111.45c-0.21,0.07-0.43,0.15-0.67,0.24c-0.35,0.15-0.98,0.43-1.91,0.83
			l-0.21,0.09c0.88,0.31,1.72,0.76,2.53,1.37c0.1,0.08,0.19,0.14,0.26,0.2V111.45z"/>
		<path class="st1" d="M146.5,110.24v5.58h-1.11v-5.58h-0.82v-0.98h2.68v0.98H146.5z"/>
		<path class="st1" d="M146.86,110.24v-0.98h3.29c0.01-0.04,0.01-0.07,0.01-0.08c0-0.51-0.24-0.85-0.72-1.01
			c-0.06-0.02-0.13-0.02-0.21-0.02c-0.12,0-0.26,0.02-0.44,0.07c-0.24,0.06-0.38,0.1-0.43,0.11c-0.19,0.03-0.36,0.09-0.5,0.18
			c-0.18,0.13-0.39,0.24-0.63,0.34l-0.36-0.83c0.43-0.29,0.99-0.55,1.68-0.76c0.29-0.09,0.57-0.13,0.83-0.13
			c0.28,0,0.59,0.1,0.94,0.3c0.59,0.36,0.9,0.97,0.92,1.83h0.64v0.98H146.86z M150.73,116.76c-0.45-0.41-0.93-0.79-1.45-1.14
			c-0.25-0.17-0.65-0.36-1.22-0.57c-0.45-0.16-0.71-0.24-0.79-0.24l0.01-1.31c0.09,0,0.24,0.01,0.43,0.02
			c0.19,0.01,0.34,0.02,0.43,0.02c0.51,0,0.92-0.07,1.23-0.19c0.6-0.25,0.9-0.55,0.9-0.89c0-0.25-0.11-0.46-0.34-0.63
			c-0.22-0.13-0.45-0.26-0.68-0.38c-0.06-0.03-0.13-0.05-0.19-0.05c-0.13,0-0.28,0.03-0.44,0.1c-0.2,0.09-0.29,0.19-0.27,0.31
			c0.04,0.29,0.34,0.41,0.91,0.37l-0.6,0.93c-0.24,0.02-0.49-0.06-0.75-0.23c-0.46-0.31-0.69-0.69-0.69-1.13
			c0-0.45,0.23-0.79,0.7-1.04c0.38-0.21,0.81-0.31,1.3-0.31c0.21,0,0.4,0.03,0.55,0.1c0.15,0.07,0.31,0.15,0.47,0.23
			c0.76,0.38,1.14,0.97,1.14,1.76c0,0.56-0.23,1.02-0.7,1.36c-0.36,0.26-0.87,0.45-1.53,0.57c0.2,0.09,0.48,0.25,0.85,0.47
			c0.63,0.48,1.14,0.91,1.53,1.28L150.73,116.76z"/>
		<path class="st1" d="M158.56,110.24v5.58h-1.11v-2.21c0-0.19-0.08-0.39-0.25-0.59c-0.17-0.2-0.34-0.31-0.53-0.31
			c-0.17,0-0.34,0.11-0.5,0.32c-0.16,0.21-0.24,0.46-0.24,0.73h-1.21c0-0.31-0.08-0.57-0.24-0.8c-0.16-0.22-0.34-0.34-0.55-0.34
			c-0.17,0-0.34,0.06-0.5,0.19c-0.16,0.12-0.25,0.27-0.26,0.43l-0.04,0.29v0.12c0,0.57,0.35,0.86,1.05,0.86
			c0.11,0,0.3-0.02,0.57-0.07l-0.39,1.13c-0.23,0.03-0.37,0.04-0.42,0.04c-0.52,0-1-0.19-1.45-0.58c-0.17-0.15-0.32-0.37-0.43-0.67
			c-0.1-0.27-0.15-0.53-0.15-0.79c0-0.6,0.19-1.09,0.56-1.47c0.37-0.37,0.86-0.56,1.46-0.56c0.56,0,1.03,0.27,1.41,0.8
			c0.41-0.53,0.85-0.8,1.33-0.8c0.26,0,0.51,0.12,0.76,0.36v-1.65h-6.03v-0.98h7.77v0.98H158.56z"/>
		<path class="st1" d="M166.92,110.24h-5.02v-0.98h6.95v0.98h-0.77v5.58h-0.99c-0.09-0.29-0.58-0.73-1.45-1.33
			c-0.36-0.25-0.85-0.49-1.47-0.72c-0.66-0.25-1.19-0.37-1.59-0.37l-0.3-1.11c0.26-0.21,0.98-0.57,2.16-1.08
			C164.94,111,165.77,110.68,166.92,110.24z M166.99,111.45c-0.21,0.07-0.43,0.15-0.67,0.24c-0.35,0.15-0.98,0.43-1.91,0.83
			l-0.21,0.09c0.88,0.31,1.72,0.76,2.53,1.37c0.1,0.08,0.19,0.14,0.26,0.2V111.45z"/>
		<path class="st1" d="M170.72,110.24c-0.35,0.49-0.53,0.89-0.53,1.21c0,0.15,0.18,0.74,0.54,1.77c0.19,0.52,0.28,0.95,0.28,1.29
			c0,0.65-0.36,1.1-1.09,1.36c-0.22,0.08-0.62,0.15-1.18,0.21l0.15-0.96c0.66-0.14,0.99-0.37,0.99-0.7c0-0.3-0.14-0.77-0.41-1.39
			c-0.27-0.63-0.41-1.09-0.41-1.38c0-0.38,0.16-0.84,0.48-1.39h-1.16v-0.98h3.11v0.98H170.72z"/>
		<path class="st1" d="M173.11,110.24v5.58h-1.11v-5.58h-0.82v-0.98h2.68v0.98H173.11z"/>
		<path class="st1" d="M175.68,112.88c-0.52,0-0.94-0.16-1.26-0.49c-0.32-0.33-0.47-0.75-0.47-1.27c0-0.48,0.16-0.88,0.49-1.2
			c0.32-0.32,0.73-0.48,1.21-0.48c0.66,0,1.13,0.33,1.42,0.99c0.13,0.28,0.19,0.55,0.19,0.82c0,0.5-0.14,0.9-0.41,1.19
			C176.58,112.74,176.19,112.88,175.68,112.88z M176.9,116.48c-1.41-1.19-2.37-1.9-2.88-2.14l0.01-1.54
			c1.94,1.39,3.21,2.5,3.81,3.33v1.15L176.9,116.48z M175.91,110.62c-0.11-0.08-0.22-0.11-0.33-0.09c-0.42,0.07-0.63,0.28-0.63,0.63
			c0,0.18,0.07,0.34,0.21,0.49c0.14,0.15,0.3,0.23,0.47,0.23l0.15-0.02c0.32-0.1,0.48-0.29,0.48-0.58
			C176.26,110.99,176.14,110.78,175.91,110.62z"/>
		<path class="st1" d="M184.86,108.61c-1.3-0.82-2.36-1.23-3.19-1.23c-0.98,0-1.69,0.31-2.15,0.93c-0.16,0.22-0.24,0.53-0.26,0.95
			h0.78v0.98h-0.78v5.58h-1.13v-5.58h-0.74v-0.98h0.74c0.02-0.79,0.28-1.43,0.78-1.93c0.5-0.49,1.17-0.8,2.03-0.91
			c0.09-0.01,0.25-0.03,0.5-0.06h0.24c0.68,0,1.35,0.15,2.03,0.44c0.36,0.17,0.96,0.51,1.79,1.02L184.86,108.61z"/>
		<path class="st1" d="M183.94,110.24v0.03c0.47,0.02,0.95,0.17,1.46,0.44c0.71,0.39,1.07,0.91,1.07,1.58
			c0,0.39-0.12,0.72-0.36,1.01c-0.24,0.28-0.55,0.47-0.93,0.56c-0.38,0.09-0.71,0.1-0.98,0.04v-1.05c0.13,0.02,0.24,0.02,0.35,0.02
			c0.56,0,0.84-0.2,0.84-0.6c0-0.48-0.48-0.78-1.45-0.9v4.45h-0.98c-0.16-0.31-0.32-0.55-0.47-0.72c-0.06-0.06-0.2-0.25-0.43-0.55
			c-0.07-0.1-0.2-0.23-0.39-0.38c-0.19-0.15-0.32-0.28-0.39-0.38c-0.03-0.05-0.12-0.1-0.26-0.15c-0.48-0.17-0.87-0.25-1.17-0.25
			l-0.3-1.11c0.25-0.18,0.8-0.51,1.66-0.99c0.06-0.05,0.33-0.2,0.79-0.46c0.17-0.1,0.45-0.26,0.84-0.49v-0.08h-3.52v-0.98h7.65v0.98
			H183.94z M182.82,111.53c-0.18,0.14-0.46,0.32-0.83,0.56c-0.09,0.04-0.2,0.12-0.33,0.24c-0.12,0.12-0.24,0.23-0.35,0.33
			c0.12,0.11,0.31,0.26,0.57,0.45c0.25,0.28,0.56,0.62,0.94,1.03V111.53z"/>
		<path class="st1" d="M188.62,112.88c-0.52,0-0.94-0.16-1.26-0.49c-0.32-0.33-0.47-0.75-0.47-1.27c0-0.48,0.16-0.88,0.49-1.2
			c0.32-0.32,0.73-0.48,1.21-0.48c0.65,0,1.13,0.33,1.42,0.99c0.13,0.28,0.19,0.55,0.19,0.82c0,0.5-0.14,0.9-0.41,1.19
			C189.51,112.74,189.12,112.88,188.62,112.88z M189.84,116.48c-1.41-1.19-2.37-1.9-2.88-2.14l0.01-1.54
			c1.94,1.39,3.21,2.5,3.81,3.33v1.15L189.84,116.48z M188.85,110.62c-0.11-0.08-0.22-0.11-0.33-0.09
			c-0.42,0.07-0.63,0.28-0.63,0.63c0,0.18,0.07,0.34,0.21,0.49c0.14,0.15,0.3,0.23,0.47,0.23l0.15-0.02
			c0.32-0.1,0.48-0.29,0.48-0.58C189.19,110.99,189.08,110.78,188.85,110.62z"/>
	</g>
	<g>
		<polygon class="st1" points="65.36,116.3 67.44,117 68.27,116.3 66.19,115.57 		"/>
		<g>
			<path class="st1" d="M66.05,110.53v-1.26H49.74v1.26h2.74v2.81c0,0,2.1,0,2.35,0c0,0,0.67-0.22,0.83-0.55c0,0.4,0,0.96,0,1.11
				c0,0.49-0.37,0.92-0.83,0.92c-0.46,0-3.25,0-3.46,0c-0.21,0-0.42-0.09-0.42-0.92c0-0.83,0-2.62,0-2.62h-1.22c0,0,0,3.08,0,3.36
				c0,0.28,0.17,1.26,1.05,1.26s4.51,0,4.69,0c0.73-0.02,1.25-0.77,1.29-1.4c0-1.36,0-3.22,0-3.22h-1.11
				c-0.12,0.49-0.05,0.83-0.55,0.95c-0.51,0-1.38,0-1.38,0v-1.7h4.02v5.36h1.39v-5.36h0.97v5.36c0,0,4.25,0,4.57,0
				c0.32,0,1.39-0.27,1.39-1.44c0-1.17,0-3.17,0-3.17h-1.11c0,0.31-0.05,0.77-0.55,0.77c-0.51,0-3.05,0-3.05,0v-1.52H66.05z
				 M64.25,113.15c0.21,0.06,0.48-0.28,0.69-0.55c0,0.31,0,0.8,0,1.29s-0.39,0.92-0.69,0.92c-0.3,0-2.91,0-2.91,0v-1.66
				C61.34,113.15,64,113.15,64.25,113.15z"/>
		</g>
		<rect x="67.57" y="112.05" class="st1" width="2.77" height="1.48"/>
		<g>
			<path class="st1" d="M71.87,109.27v1.26h4.56v0.75h-4.56c0,0,0,2.77,0,2.99c0.1,0.97,0.6,1.63,1.54,1.63c1.13,0,4.13,0,4.13,0
				v-5.36h0.97v5.36h1.25v-6.62H71.87z M76.44,115c0,0-2.65,0-2.77,0c-0.42-0.06-0.69-0.55-0.69-1.11c0-0.55,0-1.48,0-1.48h3.46V115
				z"/>
		</g>
		<path class="st1" d="M85.74,110.53h5.65v0.75c-0.25,0-1.5,0-1.66,0c-0.07,0.52-0.92,0.81-1.11,0c-0.92,0-2.88,0-2.88,0
			s0,2.86,0,3.17c0,0.31,0.05,1.31,0.89,1.44c0.79,0,2.27,0,2.27,0v-1.07c0,0-1.25,0-1.52,0c-0.3-0.09-0.55-0.28-0.55-0.74
			c0-0.55,0-1.66,0-1.66h1.52v0.92h1.38v-0.74c-0.09-0.34,1.45-0.31,1.52,0c0,0.46,0,3.29,0,3.29h1.25v-5.36h0.83v5.36h1.25v-6.62
			h-8.84V110.53z"/>
		<g>
			<g>
				<path class="st1" d="M83.78,109.64c-0.51,0-2.94,0-2.94,0s0,1.46,0,1.74c0.12,0.55,0.41,1.24,1.42,1.29c1.02,0,2.35,0,2.35,0
					v-2.14C84.54,110.17,84.28,109.7,83.78,109.64z M82.88,111.5c-0.53,0-0.96-0.19-0.96-0.43c0-0.24,0.43-0.43,0.96-0.43
					c0.53,0,0.96,0.19,0.96,0.43C83.84,111.3,83.41,111.5,82.88,111.5z"/>
			</g>
		</g>
		<polygon class="st1" points="81.03,113.32 81.03,114.42 84.59,115.89 84.59,114.74 		"/>
		<g>
			<g>
				<path class="st1" d="M113.61,109.64c-0.51,0-2.94,0-2.94,0s0,1.46,0,1.74c0.12,0.55,0.41,1.24,1.42,1.29c1.02,0,2.35,0,2.35,0
					v-2.14C114.37,110.17,114.12,109.7,113.61,109.64z M112.72,111.5c-0.53,0-0.96-0.19-0.96-0.43c0-0.24,0.43-0.43,0.96-0.43
					c0.53,0,0.96,0.19,0.96,0.43C113.68,111.3,113.25,111.5,112.72,111.5z"/>
			</g>
		</g>
		<polygon class="st1" points="110.86,113.32 110.86,114.42 114.42,115.89 114.42,114.74 		"/>
		<path class="st1" d="M121.17,111.28v-0.75h2.3v-1.26h-7.97v1.26h4.56v0.75h-4.56c0,0,0,2.77,0,2.99c0.1,0.97,0.6,1.63,1.54,1.63
			c1.13,0,4.13,0,4.13,0v-3.29h1.11c0.18,0,0.23-0.09,0.28,0.18c0,0.34,0,0.55,0,0.55c-0.07,0.28-0.09,0.46-0.28,0.55
			c-0.18,0-0.41,0-0.41,0V115h0.82c0.28-0.03,0.78-0.34,0.83-0.74c0-0.62,0-2.99,0-2.99H121.17z M120.06,115c0,0-2.65,0-2.77,0
			c-0.42-0.06-0.69-0.55-0.69-1.11c0-0.55,0-1.48,0-1.48h3.44l0.02,0.19h0V115z"/>
		<g>
			<path class="st1" d="M98.31,109.27v1.26h4.56v0.75h-4.56c0,0,0,2.77,0,2.99c0.1,0.97,0.6,1.63,1.54,1.63c1.13,0,4.13,0,4.13,0
				v-5.36h1.44l-0.53,1.05v0.74c0,0,0.78,0,0.97,0c0.52,0.06,0.69,0.4,0.69,1.29c0,0.62-0.14,1.06-0.62,1.11c-0.3,0-0.9,0-0.9,0
				v1.11c0,0,0.69,0,0.97,0c0.28,0,1.55,0.12,1.66-1.11c0.14-2.5,0.25-3.14-1.52-3.33l0.26-0.87h1.95v5.36h1.25v-6.62H98.31z
				 M102.87,115c0,0-2.65,0-2.77,0c-0.42-0.06-0.69-0.55-0.69-1.11c0-0.55,0-1.48,0-1.48h3.46V115z"/>
		</g>
	</g>
</g>
</svg>
